<?xml version="1.0" encoding="UTF-8" standalone="no"?>
<svg
   viewBox="0 0 576 512"
   version="1.1"
   id="svg614"
   sodipodi:docname="icon.svg"
   inkscape:version="1.2.2 (b0a8486541, 2022-12-01)"
   xmlns:inkscape="http://www.inkscape.org/namespaces/inkscape"
   xmlns:sodipodi="http://sodipodi.sourceforge.net/DTD/sodipodi-0.dtd"
   xmlns="http://www.w3.org/2000/svg"
   xmlns:svg="http://www.w3.org/2000/svg">
  <defs
     id="defs618" />
  <sodipodi:namedview
     id="namedview616"
     pagecolor="#ffffff"
     bordercolor="#000000"
     borderopacity="0.25"
     inkscape:showpageshadow="2"
     inkscape:pageopacity="0.0"
     inkscape:pagecheckerboard="0"
     inkscape:deskcolor="#d1d1d1"
     showgrid="false"
     inkscape:zoom="1.6338644"
     inkscape:cx="222.47868"
     inkscape:cy="193.71252"
     inkscape:window-width="2530"
     inkscape:window-height="1387"
     inkscape:window-x="0"
     inkscape:window-y="0"
     inkscape:window-maximized="1"
     inkscape:current-layer="svg614" />
  <!--! Font Awesome Pro 6.4.0 by @fontawesome - https://fontawesome.com License - https://fontawesome.com/license (Commercial License) Copyright 2023 Fonticons, Inc. -->
  <path
     d="M64 64C28.7 64 0 92.7 0 128V384c0 35.3 28.7 64 64 64H512c35.3 0 64-28.7 64-64V128c0-35.3-28.7-64-64-64H64zm16 64h32c8.8 0 16 7.2 16 16v32c0 8.8-7.2 16-16 16H80c-8.8 0-16-7.2-16-16V144c0-8.8 7.2-16 16-16zM64 240c0-8.8 7.2-16 16-16h32c8.8 0 16 7.2 16 16v32c0 8.8-7.2 16-16 16H80c-8.8 0-16-7.2-16-16V240zm16 80h32c8.8 0 16 7.2 16 16v32c0 8.8-7.2 16-16 16H80c-8.8 0-16-7.2-16-16V336c0-8.8 7.2-16 16-16zm80-176c0-8.8 7.2-16 16-16h32c8.8 0 16 7.2 16 16v32c0 8.8-7.2 16-16 16H176c-8.8 0-16-7.2-16-16V144zm16 80h32c8.8 0 16 7.2 16 16v32c0 8.8-7.2 16-16 16H176c-8.8 0-16-7.2-16-16V240c0-8.8 7.2-16 16-16zM160 336c0-8.8 7.2-16 16-16H400c8.8 0 16 7.2 16 16v32c0 8.8-7.2 16-16 16H176c-8.8 0-16-7.2-16-16V336zM272 128h32c8.8 0 16 7.2 16 16v32c0 8.8-7.2 16-16 16H272c-8.8 0-16-7.2-16-16V144c0-8.8 7.2-16 16-16zM256 240c0-8.8 7.2-16 16-16h32c8.8 0 16 7.2 16 16v32c0 8.8-7.2 16-16 16H272c-8.8 0-16-7.2-16-16V240zM368 128h32c8.8 0 16 7.2 16 16v32c0 8.8-7.2 16-16 16H368c-8.8 0-16-7.2-16-16V144c0-8.8 7.2-16 16-16zM352 240c0-8.8 7.2-16 16-16h32c8.8 0 16 7.2 16 16v32c0 8.8-7.2 16-16 16H368c-8.8 0-16-7.2-16-16V240zM464 128h32c8.8 0 16 7.2 16 16v32c0 8.8-7.2 16-16 16H464c-8.8 0-16-7.2-16-16V144c0-8.8 7.2-16 16-16zM448 240c0-8.8 7.2-16 16-16h32c8.8 0 16 7.2 16 16v32c0 8.8-7.2 16-16 16H464c-8.8 0-16-7.2-16-16V240zm16 80h32c8.8 0 16 7.2 16 16v32c0 8.8-7.2 16-16 16H464c-8.8 0-16-7.2-16-16V336c0-8.8 7.2-16 16-16z"
     id="path612" />
  <path
     style="fill:#292e42;fill-opacity:0;stroke-width:0.435745"
     d="m 57.082553,447.42687 c -8.265645,-0.894 -18.325022,-4.3096 -25.571456,-8.68264 C 13.074785,427.6184 2.0090214,409.47203 0.44675652,387.80289 -0.15184064,379.50014 -0.15313532,132.51776 0.44537477,124.21645 1.8287908,105.02853 10.482758,88.833638 25.536405,77.261512 33.048529,71.486749 42.127899,67.417864 52.289362,65.272275 55.825417,64.525638 66.503676,64.490213 288.02723,64.490213 h 232.03405 l 4.52324,1.012751 c 27.06873,6.060659 46.84713,27.118329 50.56281,53.833196 0.66386,4.77278 0.66386,268.5549 0,273.32768 -2.43646,17.51764 -12.47053,33.77285 -26.98052,43.7085 -6.77657,4.64024 -13.83511,7.74703 -22.65872,9.97317 l -4.57532,1.15433 -231.16256,0.046 c -127.1394,0.0253 -231.848848,-0.0282 -232.687657,-0.11896 z m 61.939157,-64.95195 c 3.40946,-1.67896 6.0874,-4.41454 7.71009,-7.87605 l 1.15926,-2.47291 V 351.86383 331.6017 l -1.22343,-2.4914 c -1.53099,-3.11771 -4.34374,-6.04606 -7.19538,-7.49109 -3.61937,-1.83408 -6.86174,-2.07556 -25.662608,-1.91128 -16.102356,0.1407 -17.481484,0.21287 -19.373875,1.01381 -4.687977,1.98415 -8.10316,5.46381 -9.77045,9.9549 -0.768087,2.06897 -0.828721,3.6351 -0.828721,21.40506 0,18.96432 0.01085,19.19956 0.996291,21.63703 1.828384,4.52238 5.475162,8.07336 9.862122,9.60304 2.010247,0.70095 4.018812,0.76265 21.832438,0.67063 l 19.618513,-0.10134 z m 288.02643,0 c 3.41031,-1.67891 6.08786,-4.41381 7.7109,-7.87605 l 1.15926,-2.47291 V 351.86383 331.6017 l -1.22747,-2.5003 c -2.39029,-4.86892 -6.8868,-8.16607 -12.35872,-9.06224 -3.61887,-0.59268 -225.18591,-0.55786 -228.84555,0.036 -5.37671,0.87245 -9.68384,4.05896 -12.07836,8.93585 l -1.27203,2.59074 v 20.48 20.48 l 1.22703,2.3966 c 2.08872,4.07962 6.04239,7.42927 10.3202,8.74353 0.59915,0.18407 53.1541,0.30196 116.78877,0.26196 l 115.69941,-0.0727 z m 95.81787,0.22986 c 3.08062,-1.51435 6.22034,-4.65406 7.73198,-7.73196 l 1.18414,-2.41112 v -20.69787 -20.69787 l -1.21355,-2.30331 c -2.50715,-4.75842 -6.63495,-7.81867 -11.8299,-8.77029 -3.33741,-0.61136 -33.4774,-0.62531 -37.22489,-0.0172 -5.36946,0.87127 -9.94883,4.26983 -12.18686,9.04436 l -1.16353,2.48222 v 20.48 c 0,20.06922 0.0187,20.52086 0.9416,22.5174 1.09416,2.36749 4.04433,5.71693 6.28266,7.13291 3.71097,2.3476 3.85163,2.36017 25.23872,2.2558 l 19.82639,-0.0967 2.41324,-1.18629 z m -386.0234,-95.32397 c 5.0729,-1.58325 9.18916,-5.72161 10.63375,-10.69082 0.56365,-1.93887 0.6475,-5.29295 0.54089,-21.63356 l -0.12619,-19.33894 -1.43491,-2.91369 c -1.71557,-3.4836 -4.85849,-6.43483 -8.36934,-7.85892 -2.35766,-0.95632 -2.71886,-0.97211 -22.232397,-0.97211 H 76.018618 l -2.897741,1.42667 c -3.589504,1.76726 -6.861632,5.21055 -8.273092,8.70585 -1.005093,2.48897 -1.011189,2.62098 -1.011189,21.89471 0,19.23341 0.0081,19.41078 1.003847,21.87509 1.820881,4.50656 6.324951,8.52759 10.948346,9.77419 1.418811,0.38256 7.210834,0.54547 20.138076,0.56642 16.922495,0.0274 18.333225,-0.0289 20.915745,-0.83489 z m 98.06462,-0.78025 c 3.58864,-1.76737 6.86108,-5.21135 8.27222,-8.70585 1.00509,-2.48897 1.01119,-2.62098 1.01119,-21.89471 0,-19.27373 -0.006,-19.40574 -1.01119,-21.89471 -1.41146,-3.4953 -4.68359,-6.93859 -8.27309,-8.70585 l -2.89774,-1.42667 h -19.8358 c -19.51354,0 -19.87473,0.0158 -22.23239,0.97211 -3.51103,1.42415 -6.65379,4.37531 -8.36935,7.85911 l -1.43491,2.91388 -0.12163,19.67718 c -0.11723,18.96576 -0.0891,19.76399 0.77672,22.07821 1.80918,4.83547 5.3897,8.29256 10.23853,9.88556 2.46151,0.8087 3.73674,0.85337 21.79751,0.76368 l 19.18306,-0.0953 z m 95.84785,0.052 c 3.60427,-1.70762 6.19607,-4.31382 7.94971,-7.99387 l 1.34968,-2.83234 V 256 236.17362 l -1.34968,-2.83234 c -1.75364,-3.68005 -4.34544,-6.28625 -7.94971,-7.99387 l -2.90146,-1.37464 -18.64165,-0.13066 c -21.03614,-0.14744 -22.21526,-0.0199 -26.41752,2.85744 -2.99752,2.05245 -5.03074,4.80863 -6.13883,8.32167 -0.81594,2.58684 -0.87349,3.96686 -0.87349,20.94559 0,20.28401 0.0849,21.01738 2.9174,25.20117 2.26796,3.34993 6.03047,5.81645 10.37281,6.79991 0.47932,0.10856 9.40119,0.16632 19.82638,0.12836 l 18.9549,-0.069 z m 93.41119,0.91719 c 4.77667,-1.24417 8.62009,-4.51638 10.76327,-9.16364 0.97399,-2.112 0.99064,-2.43265 1.11494,-21.47275 0.14016,-21.47074 0.0817,-22.04179 -2.66527,-26.0459 -1.99876,-2.91347 -5.17851,-5.23656 -8.61305,-6.29261 -2.72951,-0.83927 -3.81757,-0.87686 -21.78723,-0.75275 l -18.91425,0.13064 -2.73736,1.26407 c -3.47667,1.60546 -7.02029,5.31935 -8.44612,8.85192 -1.013,2.50976 -1.01737,2.60401 -1.01737,21.91124 0,19.27373 0.006,19.40574 1.01119,21.89471 1.85649,4.59736 6.63999,8.77979 11.29682,9.87732 0.8997,0.21204 9.68313,0.40523 19.51874,0.42931 14.84905,0.0363 18.32279,-0.0708 20.47569,-0.63156 z m 98.34238,-0.71037 c 3.29118,-1.54258 6.42266,-4.53523 7.99718,-7.64268 l 1.2763,-2.51886 V 256 235.30213 l -1.2763,-2.51886 c -1.57452,-3.10745 -4.706,-6.1001 -7.99718,-7.64268 l -2.49163,-1.16782 h -20.04425 -20.04426 l -2.47289,1.15926 c -3.30469,1.54917 -6.02025,4.13647 -7.81487,7.44578 l -1.47735,2.72432 -0.12571,19.71747 c -0.0786,12.3302 0.0392,20.32967 0.3147,21.35149 1.27808,4.74156 5.81231,9.4388 10.59077,10.97155 2.58275,0.82843 3.75137,0.87004 21.9011,0.77986 l 19.17276,-0.0953 z M 114.30488,191.96084 c 5.54334,-0.90787 9.93728,-4.13191 12.36275,-9.07114 l 1.22343,-2.4914 v -20.26213 -20.26213 l -1.22041,-2.61447 c -1.54254,-3.30456 -4.14852,-6.00693 -7.49448,-7.77169 l -2.61447,-1.37894 h -20.479998 -20.48 l -2.491405,1.22343 c -4.811519,2.36275 -8.051695,6.61653 -9.016847,11.83752 -0.583641,3.1572 -0.641355,33.82298 -0.07022,37.30942 1.105161,6.74632 6.562885,12.35723 13.09828,13.46592 2.882817,0.48905 34.21225,0.5022 37.18337,0.0156 z m 96.40658,-0.0532 c 5.15802,-0.94486 9.40288,-4.07242 11.712,-8.62924 1.82486,-3.6012 2.0695,-6.9007 1.88617,-25.43965 -0.18759,-18.96909 -0.16731,-18.82291 -3.23344,-23.30143 -1.92392,-2.81016 -5.85923,-5.53154 -8.98176,-6.21117 -1.57523,-0.34284 -8.22941,-0.45359 -21.45613,-0.35709 l -19.17277,0.13988 -2.61447,1.37894 c -3.1965,1.68593 -5.85847,4.37135 -7.48786,7.55382 l -1.22703,2.3966 v 20.48 20.48 l 1.27203,2.59073 c 2.30983,4.70441 6.74342,8.08535 11.68102,8.90765 3.42087,0.56972 34.52256,0.57877 37.62224,0.0109 z m 99.19087,-0.75877 c 4.60691,-1.84162 8.45554,-6.21221 9.74905,-11.07128 0.93494,-3.51208 0.89022,-36.5901 -0.0544,-40.21662 -1.24824,-4.79232 -4.33885,-8.4834 -8.89117,-10.61861 l -2.41648,-1.13342 h -20.27129 -20.27129 l -2.87659,1.41614 c -3.41034,1.6789 -6.08788,4.41378 -7.71093,7.87605 L 256,139.87404 v 20.04426 20.04425 l 1.2524,2.71137 c 2.18352,4.72717 6.90528,8.38384 11.98144,9.2788 1.10947,0.1956 10.15476,0.31822 20.10063,0.27248 17.70667,-0.0814 18.13516,-0.10386 20.56786,-1.07633 z m 92.42978,0.81197 c 5.47192,-0.89617 9.96843,-4.19332 12.35872,-9.06224 l 1.22747,-2.5003 v -20.26213 -20.26213 l -1.15926,-2.47291 c -1.62318,-3.46254 -4.30058,-6.19717 -7.71123,-7.87605 l -2.87689,-1.41614 h -20.27099 -20.27099 l -2.59074,1.27203 c -4.63568,2.27609 -7.81817,6.38542 -8.9023,11.49495 -0.62799,2.9597 -0.66787,34.76137 -0.0477,38.0315 1.23641,6.51957 6.64834,11.96199 12.94886,13.02183 2.97663,0.50071 34.2688,0.52721 37.29506,0.0316 z m 96.14516,-0.0433 c 5.32973,-0.86471 9.52643,-3.91221 12.09131,-8.78019 l 1.21355,-2.3033 V 160.13617 139.4383 l -1.18414,-2.41112 c -1.51164,-3.0779 -4.65136,-6.21761 -7.73198,-7.73195 l -2.41324,-1.18627 h -20.48 -20.48 l -2.51238,1.27234 c -2.99143,1.51497 -6.53442,5.11476 -7.86092,7.9869 -0.94134,2.03822 -0.95607,2.38567 -0.95607,22.55012 v 20.48 l 1.16353,2.48222 c 2.15606,4.59972 6.85683,8.19468 11.78951,9.01616 3.32604,0.55392 33.96983,0.57103 37.36083,0.0209 z"
     id="path900" />
  <path
     style="fill:#565f89;fill-opacity:1;stroke-width:0.435745;fill-rule:nonzero"
     d="m 57.082553,447.42687 c -8.265645,-0.894 -18.325022,-4.3096 -25.571456,-8.68264 C 13.074785,427.6184 2.0090214,409.47203 0.44675652,387.80289 -0.15184064,379.50014 -0.15313532,132.51776 0.44537477,124.21645 1.8287908,105.02853 10.482758,88.833638 25.536405,77.261512 33.048529,71.486749 42.127899,67.417864 52.289362,65.272275 55.825417,64.525638 66.503676,64.490213 288.02723,64.490213 h 232.03405 l 4.52324,1.012751 c 27.06873,6.060659 46.84713,27.118329 50.56281,53.833196 0.66386,4.77278 0.66386,268.5549 0,273.32768 -2.43646,17.51764 -12.47053,33.77285 -26.98052,43.7085 -6.77657,4.64024 -13.83511,7.74703 -22.65872,9.97317 l -4.57532,1.15433 -231.16256,0.046 c -127.1394,0.0253 -231.848848,-0.0282 -232.687657,-0.11896 z m 61.939157,-64.95195 c 3.40946,-1.67896 6.0874,-4.41454 7.71009,-7.87605 l 1.15926,-2.47291 V 351.86383 331.6017 l -1.22343,-2.4914 c -1.53099,-3.11771 -4.34374,-6.04606 -7.19538,-7.49109 -3.61937,-1.83408 -6.86174,-2.07556 -25.662608,-1.91128 -16.102356,0.1407 -17.481484,0.21287 -19.373875,1.01381 -4.687977,1.98415 -8.10316,5.46381 -9.77045,9.9549 -0.768087,2.06897 -0.828721,3.6351 -0.828721,21.40506 0,18.96432 0.01085,19.19956 0.996291,21.63703 1.828384,4.52238 5.475162,8.07336 9.862122,9.60304 2.010247,0.70095 4.018812,0.76265 21.832438,0.67063 l 19.618513,-0.10134 z m 288.02643,0 c 3.41031,-1.67891 6.08786,-4.41381 7.7109,-7.87605 l 1.15926,-2.47291 V 351.86383 331.6017 l -1.22747,-2.5003 c -2.39029,-4.86892 -6.8868,-8.16607 -12.35872,-9.06224 -3.61887,-0.59268 -225.18591,-0.55786 -228.84555,0.036 -5.37671,0.87245 -9.68384,4.05896 -12.07836,8.93585 l -1.27203,2.59074 v 20.48 20.48 l 1.22703,2.3966 c 2.08872,4.07962 6.04239,7.42927 10.3202,8.74353 0.59915,0.18407 53.1541,0.30196 116.78877,0.26196 l 115.69941,-0.0727 z m 95.81787,0.22986 c 3.08062,-1.51435 6.22034,-4.65406 7.73198,-7.73196 l 1.18414,-2.41112 v -20.69787 -20.69787 l -1.21355,-2.30331 c -2.50715,-4.75842 -6.63495,-7.81867 -11.8299,-8.77029 -3.33741,-0.61136 -33.4774,-0.62531 -37.22489,-0.0172 -5.36946,0.87127 -9.94883,4.26983 -12.18686,9.04436 l -1.16353,2.48222 v 20.48 c 0,20.06922 0.0187,20.52086 0.9416,22.5174 1.09416,2.36749 4.04433,5.71693 6.28266,7.13291 3.71097,2.3476 3.85163,2.36017 25.23872,2.2558 l 19.82639,-0.0967 2.41324,-1.18629 z m -386.0234,-95.32397 c 5.0729,-1.58325 9.18916,-5.72161 10.63375,-10.69082 0.56365,-1.93887 0.6475,-5.29295 0.54089,-21.63356 l -0.12619,-19.33894 -1.43491,-2.91369 c -1.71557,-3.4836 -4.85849,-6.43483 -8.36934,-7.85892 -2.35766,-0.95632 -2.71886,-0.97211 -22.232397,-0.97211 H 76.018618 l -2.897741,1.42667 c -3.589504,1.76726 -6.861632,5.21055 -8.273092,8.70585 -1.005093,2.48897 -1.011189,2.62098 -1.011189,21.89471 0,19.23341 0.0081,19.41078 1.003847,21.87509 1.820881,4.50656 6.324951,8.52759 10.948346,9.77419 1.418811,0.38256 7.210834,0.54547 20.138076,0.56642 16.922495,0.0274 18.333225,-0.0289 20.915745,-0.83489 z m 98.06462,-0.78025 c 3.58864,-1.76737 6.86108,-5.21135 8.27222,-8.70585 1.00509,-2.48897 1.01119,-2.62098 1.01119,-21.89471 0,-19.27373 -0.006,-19.40574 -1.01119,-21.89471 -1.41146,-3.4953 -4.68359,-6.93859 -8.27309,-8.70585 l -2.89774,-1.42667 h -19.8358 c -19.51354,0 -19.87473,0.0158 -22.23239,0.97211 -3.51103,1.42415 -6.65379,4.37531 -8.36935,7.85911 l -1.43491,2.91388 -0.12163,19.67718 c -0.11723,18.96576 -0.0891,19.76399 0.77672,22.07821 1.80918,4.83547 5.3897,8.29256 10.23853,9.88556 2.46151,0.8087 3.73674,0.85337 21.79751,0.76368 l 19.18306,-0.0953 z m 95.84785,0.052 c 3.60427,-1.70762 6.19607,-4.31382 7.94971,-7.99387 l 1.34968,-2.83234 V 256 236.17362 l -1.34968,-2.83234 c -1.75364,-3.68005 -4.34544,-6.28625 -7.94971,-7.99387 l -2.90146,-1.37464 -18.64165,-0.13066 c -21.03614,-0.14744 -22.21526,-0.0199 -26.41752,2.85744 -2.99752,2.05245 -5.03074,4.80863 -6.13883,8.32167 -0.81594,2.58684 -0.87349,3.96686 -0.87349,20.94559 0,20.28401 0.0849,21.01738 2.9174,25.20117 2.26796,3.34993 6.03047,5.81645 10.37281,6.79991 0.47932,0.10856 9.40119,0.16632 19.82638,0.12836 l 18.9549,-0.069 z m 93.41119,0.91719 c 4.77667,-1.24417 8.62009,-4.51638 10.76327,-9.16364 0.97399,-2.112 0.99064,-2.43265 1.11494,-21.47275 0.14016,-21.47074 0.0817,-22.04179 -2.66527,-26.0459 -1.99876,-2.91347 -5.17851,-5.23656 -8.61305,-6.29261 -2.72951,-0.83927 -3.81757,-0.87686 -21.78723,-0.75275 l -18.91425,0.13064 -2.73736,1.26407 c -3.47667,1.60546 -7.02029,5.31935 -8.44612,8.85192 -1.013,2.50976 -1.01737,2.60401 -1.01737,21.91124 0,19.27373 0.006,19.40574 1.01119,21.89471 1.85649,4.59736 6.63999,8.77979 11.29682,9.87732 0.8997,0.21204 9.68313,0.40523 19.51874,0.42931 14.84905,0.0363 18.32279,-0.0708 20.47569,-0.63156 z m 98.34238,-0.71037 c 3.29118,-1.54258 6.42266,-4.53523 7.99718,-7.64268 l 1.2763,-2.51886 V 256 235.30213 l -1.2763,-2.51886 c -1.57452,-3.10745 -4.706,-6.1001 -7.99718,-7.64268 l -2.49163,-1.16782 h -20.04425 -20.04426 l -2.47289,1.15926 c -3.30469,1.54917 -6.02025,4.13647 -7.81487,7.44578 l -1.47735,2.72432 -0.12571,19.71747 c -0.0786,12.3302 0.0392,20.32967 0.3147,21.35149 1.27808,4.74156 5.81231,9.4388 10.59077,10.97155 2.58275,0.82843 3.75137,0.87004 21.9011,0.77986 l 19.17276,-0.0953 z M 114.30488,191.96084 c 5.54334,-0.90787 9.93728,-4.13191 12.36275,-9.07114 l 1.22343,-2.4914 v -20.26213 -20.26213 l -1.22041,-2.61447 c -1.54254,-3.30456 -4.14852,-6.00693 -7.49448,-7.77169 l -2.61447,-1.37894 h -20.479998 -20.48 l -2.491405,1.22343 c -4.811519,2.36275 -8.051695,6.61653 -9.016847,11.83752 -0.583641,3.1572 -0.641355,33.82298 -0.07022,37.30942 1.105161,6.74632 6.562885,12.35723 13.09828,13.46592 2.882817,0.48905 34.21225,0.5022 37.18337,0.0156 z m 96.40658,-0.0532 c 5.15802,-0.94486 9.40288,-4.07242 11.712,-8.62924 1.82486,-3.6012 2.0695,-6.9007 1.88617,-25.43965 -0.18759,-18.96909 -0.16731,-18.82291 -3.23344,-23.30143 -1.92392,-2.81016 -5.85923,-5.53154 -8.98176,-6.21117 -1.57523,-0.34284 -8.22941,-0.45359 -21.45613,-0.35709 l -19.17277,0.13988 -2.61447,1.37894 c -3.1965,1.68593 -5.85847,4.37135 -7.48786,7.55382 l -1.22703,2.3966 v 20.48 20.48 l 1.27203,2.59073 c 2.30983,4.70441 6.74342,8.08535 11.68102,8.90765 3.42087,0.56972 34.52256,0.57877 37.62224,0.0109 z m 99.19087,-0.75877 c 4.60691,-1.84162 8.45554,-6.21221 9.74905,-11.07128 0.93494,-3.51208 0.89022,-36.5901 -0.0544,-40.21662 -1.24824,-4.79232 -4.33885,-8.4834 -8.89117,-10.61861 l -2.41648,-1.13342 h -20.27129 -20.27129 l -2.87659,1.41614 c -3.41034,1.6789 -6.08788,4.41378 -7.71093,7.87605 L 256,139.87404 v 20.04426 20.04425 l 1.2524,2.71137 c 2.18352,4.72717 6.90528,8.38384 11.98144,9.2788 1.10947,0.1956 10.15476,0.31822 20.10063,0.27248 17.70667,-0.0814 18.13516,-0.10386 20.56786,-1.07633 z m 92.42978,0.81197 c 5.47192,-0.89617 9.96843,-4.19332 12.35872,-9.06224 l 1.22747,-2.5003 v -20.26213 -20.26213 l -1.15926,-2.47291 c -1.62318,-3.46254 -4.30058,-6.19717 -7.71123,-7.87605 l -2.87689,-1.41614 h -20.27099 -20.27099 l -2.59074,1.27203 c -4.63568,2.27609 -7.81817,6.38542 -8.9023,11.49495 -0.62799,2.9597 -0.66787,34.76137 -0.0477,38.0315 1.23641,6.51957 6.64834,11.96199 12.94886,13.02183 2.97663,0.50071 34.2688,0.52721 37.29506,0.0316 z m 96.14516,-0.0433 c 5.32973,-0.86471 9.52643,-3.91221 12.09131,-8.78019 l 1.21355,-2.3033 V 160.13617 139.4383 l -1.18414,-2.41112 c -1.51164,-3.0779 -4.65136,-6.21761 -7.73198,-7.73195 l -2.41324,-1.18627 h -20.48 -20.48 l -2.51238,1.27234 c -2.99143,1.51497 -6.53442,5.11476 -7.86092,7.9869 -0.94134,2.03822 -0.95607,2.38567 -0.95607,22.55012 v 20.48 l 1.16353,2.48222 c 2.15606,4.59972 6.85683,8.19468 11.78951,9.01616 3.32604,0.55392 33.96983,0.57103 37.36083,0.0209 z"
     id="path1648" />
  <path
     style="fill:#565f89;fill-opacity:1;fill-rule:nonzero;stroke-width:0.435745"
     d="m 170.95829,382.8688 c -2.8471,-0.98604 -5.70494,-3.1689 -7.73018,-5.90444 -2.85619,-3.8579 -2.91519,-4.40608 -2.77844,-25.81254 l 0.12224,-19.13447 1.43219,-2.90829 c 2.26618,-4.60187 6.40257,-7.68751 11.59111,-8.64666 1.4144,-0.26147 44.7976,-0.37512 115.99564,-0.30387 l 113.73618,0.11381 3.33082,1.64621 c 3.76439,1.8605 5.91453,4.02228 7.6807,7.7223 l 1.144,2.3966 v 20.04425 20.04426 l -1.20145,2.44531 c -1.43386,2.91833 -5.13073,6.55595 -8.04036,7.9115 l -2.08755,0.97255 -115.47234,0.0964 c -109.9326,0.0918 -115.58029,0.059 -117.72256,-0.68291 z"
     id="path3313" />
  <path
     style="fill:#292e42;fill-opacity:1;fill-rule:nonzero;stroke-width:0.435745"
     d="M 52.289362,446.36464 C 39.050578,443.597 28.556934,437.95692 19.167812,428.56262 8.4971154,417.88603 2.6830426,405.55763 0.85954817,389.74102 0.17993362,383.84618 0.17819796,128.57764 0.8577292,122.22152 2.5339533,106.54264 8.4006354,94.175132 19.367581,83.201037 27.991911,74.571084 37.210048,69.417203 50.328511,65.890712 l 3.485957,-0.937092 233.228682,-0.135867 233.22868,-0.135868 4.6707,1.147248 c 25.38736,6.235779 43.34671,24.056882 49.1934,48.814777 0.63139,2.67364 0.7544,10.6791 1.10884,72.18162 0.23238,40.31737 0.24201,98.03157 0.0231,138.34894 l -0.37557,69.17447 -1.32871,5.01106 c -6.23316,23.50768 -23.34764,40.22578 -47.74829,46.6424 l -4.88252,1.28396 -232.25192,-0.0281 C 58.709432,447.23032 56.38829,447.22156 52.289362,446.36465 Z m 66.694648,-63.6118 c 3.29232,-1.75479 6.00329,-4.45634 7.73814,-7.71126 l 1.38679,-2.60186 v -20.54243 -20.54243 l -1.05146,-2.07495 c -1.46246,-2.88603 -4.56803,-6.21071 -7.0769,-7.57621 -3.57287,-1.9446 -6.24115,-2.14947 -26.082011,-2.00257 l -18.296867,0.13547 -2.614468,1.3797 c -3.208044,1.69295 -6.294694,4.80479 -7.924152,7.98881 l -1.226486,2.39659 v 20.26213 20.26213 l 1.159259,2.47291 c 1.293016,2.75825 4.050334,5.97286 6.333562,7.38398 3.233561,1.99844 4.045262,2.06618 25.127034,2.09693 l 19.983269,0.0292 z m 288.02723,0 c 3.29233,-1.75479 6.00329,-4.45634 7.73815,-7.71126 l 1.38678,-2.60186 V 351.7772 331.11469 l -1.55326,-2.58884 c -2.7631,-4.60528 -5.57261,-6.86026 -10.23656,-8.21611 -2.1918,-0.63717 -12.8153,-0.69036 -117.2098,-0.58691 l -114.79953,0.11377 -2.50408,1.01118 c -3.2358,1.30668 -6.7883,4.57455 -8.53447,7.85071 l -1.38017,2.58945 v 20.80171 20.80171 l 1.33597,2.33505 c 1.86195,3.25433 4.93267,6.17847 8.02398,7.64092 l 2.62303,1.24092 116.28283,3.4e-4 116.28284,3.5e-4 z m 96.21221,0.009 c 2.974,-1.70541 5.72398,-4.45541 7.4294,-7.42939 l 1.33896,-2.33495 0.004,-21.07662 0.004,-21.07662 -1.52018,-2.5025 c -1.73496,-2.85607 -4.58774,-5.65002 -7.05318,-6.9078 -3.31218,-1.68976 -6.04635,-1.87951 -24.97898,-1.73352 -17.73472,0.13676 -18.13168,0.15891 -20.5875,1.14902 -3.24965,1.31017 -6.78916,4.57456 -8.55759,7.89244 l -1.40327,2.63283 0.13208,21.02925 c 0.14471,23.04949 -0.0569,21.34581 3.01478,25.4723 1.99776,2.68376 5.07103,4.91019 7.79099,5.6442 1.39974,0.37773 7.71329,0.53695 22.00711,0.55501 l 20.04425,0.0253 2.33494,-1.33897 z M 118.61758,286.85941 c 3.29725,-1.54542 6.5848,-4.68663 8.06988,-7.71067 l 1.2036,-2.45087 0.12507,-20.5716 0.12506,-20.57159 -1.14978,-2.26898 c -1.59529,-3.14814 -5.07498,-6.68325 -7.98541,-8.11254 l -2.4443,-1.20039 -20.374478,-0.13268 -20.374476,-0.13266 -2.696623,1.43728 c -3.454401,1.84118 -6.465575,4.86253 -8.038356,8.06551 l -1.241171,2.52765 v 19.60851 c 0,10.78468 0.153591,20.33126 0.341314,21.21462 0.507869,2.38988 3.540909,6.62778 6.074556,8.48764 4.37726,3.21321 4.248602,3.19811 26.264981,3.082 l 19.608513,-0.10341 z m 96.33806,-0.0278 c 3.41265,-1.81893 6.42743,-4.85179 7.99383,-8.04177 l 1.24117,-2.52767 V 256 235.73787 l -1.24117,-2.52765 c -1.57278,-3.20298 -4.58396,-6.22433 -8.03836,-8.06551 l -2.69662,-1.43728 -20.37448,0.13266 -20.37448,0.13268 -2.4443,1.20039 c -2.90795,1.42808 -6.38981,4.96378 -7.98157,8.10498 l -1.14595,2.2614 0.12123,20.57917 0.12123,20.57916 1.18415,2.41112 c 2.01947,4.11194 6.39834,7.73277 10.55498,8.72777 0.73326,0.17553 10.12959,0.33921 20.88073,0.36374 l 19.54752,0.0446 2.65209,-1.41356 z m 96.23077,-0.17578 c 3.45127,-1.81358 5.96046,-4.40904 7.82458,-8.09356 l 1.26135,-2.49312 V 256 235.93089 l -1.33197,-2.6386 c -1.84088,-3.64677 -4.25452,-6.10917 -7.82973,-7.98789 l -3.039,-1.59695 -20.37114,0.13266 -20.37114,0.13266 -2.17872,1.0668 c -3.23694,1.58496 -6.43484,4.81877 -7.89824,7.98694 L 256,235.73787 v 20.48 20.48 l 1.00081,2.0316 c 1.98574,4.03097 5.23992,6.97402 9.59357,8.67634 1.87021,0.73128 3.70671,0.80025 21.80488,0.81892 l 19.76266,0.0204 z m 95.67815,0.11905 c 3.0286,-1.39893 6.37196,-4.61195 8.02519,-7.71233 l 1.02855,-1.92889 V 256 234.86638 l -1.27326,-2.29814 c -1.64647,-2.97177 -4.86114,-5.95636 -8.00023,-7.42765 l -2.49162,-1.16782 -20.13308,-0.12536 -20.13309,-0.12536 -2.60534,1.31517 c -3.32206,1.67697 -6.59167,4.94511 -8.17668,8.173 l -1.24117,2.52765 v 19.60851 c 0,10.78468 0.15359,20.33126 0.34131,21.21462 0.50787,2.38988 3.54091,6.62778 6.07456,8.48764 4.37726,3.21321 4.2486,3.19811 26.26498,3.082 l 19.60851,-0.10341 2.71137,-1.2524 z m 96.01051,0.11419 c 3.09902,-1.65176 6.15232,-4.5871 7.84972,-7.54645 l 1.26702,-2.20895 V 256.00001 234.8664 l -1.33186,-2.32251 c -1.7089,-2.98001 -4.59205,-5.73112 -7.79556,-7.43857 l -2.53363,-1.35043 h -20.3274 c -19.8894,0 -20.36697,0.02 -22.16198,0.9299 -3.55371,1.80129 -5.63187,3.64613 -7.76153,6.89017 l -2.13432,3.25108 0.004,20.71804 0.004,20.71805 1.04278,2.23953 c 1.85749,3.98934 5.80229,7.60232 9.84469,9.01663 1.66624,0.58297 4.90784,0.68832 21.72388,0.70601 l 19.76538,0.0208 2.54431,-1.3561 z M 116.37368,191.68011 c 4.64395,-1.37581 7.43229,-3.62301 10.182,-8.20596 l 1.55326,-2.58884 v -20.627 -20.62699 l -1.3316,-2.63787 c -1.62105,-3.2113 -4.15866,-5.81964 -7.48563,-7.6943 l -2.49893,-1.40809 H 95.953733 75.114688 l -2.588833,1.52983 c -3.452393,2.04014 -6.427971,5.28786 -7.67522,8.3772 -1.009895,2.50144 -1.014039,2.59269 -1.014039,22.33808 v 19.82638 l 1.167822,2.49162 c 1.397917,2.98254 4.680115,6.61642 7.100599,7.86142 3.800364,1.95475 4.39408,2.00604 23.570789,2.03654 15.635124,0.0249 18.679204,-0.074 20.697874,-0.67202 z m 97.68444,-0.52849 c 3.04655,-1.22953 6.71485,-4.48555 8.26754,-7.33836 1.95781,-3.59714 2.17074,-6.34141 2.01149,-25.92367 l -0.14651,-18.01555 -1.17783,-2.51348 c -1.43102,-3.05379 -5.01793,-6.73563 -7.97281,-8.18382 l -2.17872,-1.0678 -20.79185,-0.12111 -20.79185,-0.1211 -2.52049,1.42025 c -3.16891,1.78562 -5.64707,4.24311 -7.44148,7.37941 l -1.39731,2.44225 v 20.82083 20.82082 l 1.50506,2.69131 c 2.45574,4.39127 6.58899,7.62932 10.84558,8.49657 0.99608,0.20295 10.24272,0.33638 20.54808,0.29653 18.50351,-0.0716 18.76823,-0.0851 21.2411,-1.08308 z m 96.7589,-0.22939 c 3.20688,-1.57469 6.41293,-4.76924 7.9601,-7.93153 1.15952,-2.36997 1.21959,-2.83193 1.59209,-12.24176 0.22865,-5.77617 0.22504,-14.12095 -0.009,-20.38695 -0.39164,-10.49352 -0.40999,-10.63804 -1.69935,-13.38036 -1.57786,-3.35594 -4.01125,-5.86773 -7.47116,-7.71184 l -2.58677,-1.37873 h -20.57589 -20.57588 l -2.62286,1.39797 c -3.33223,1.77607 -5.87233,4.31616 -7.64839,7.64839 l -1.39797,2.62286 v 20.32456 20.32456 l 1.14629,2.27317 c 1.6477,3.2675 3.33775,5.25132 5.95193,6.98651 4.32716,2.8722 4.46382,2.88683 26.01837,2.78549 l 19.39064,-0.0912 z m 94.07634,0.5584 c 4.53564,-1.52795 7.03518,-3.59386 9.68701,-8.00648 l 1.5558,-2.58884 V 160.2228 139.56028 l -1.39797,-2.62286 c -1.77606,-3.33223 -4.31616,-5.87232 -7.64839,-7.64839 l -2.62286,-1.39797 h -20.57589 -20.57588 l -2.56086,1.36493 c -3.18396,1.69703 -6.19356,4.86399 -7.72267,8.12643 l -1.16782,2.49162 v 20.04426 20.04425 l 1.22041,2.61447 c 1.31807,2.82367 3.90201,5.78026 6.52329,7.46405 3.32625,2.13663 4.84769,2.28072 24.40622,2.31153 17.29162,0.0272 18.34037,-0.0166 20.87961,-0.87197 z m 97.17236,-0.32167 c 3.11444,-1.25765 6.3939,-4.17508 8.3937,-7.46711 L 512,181.15579 v -21.10225 -21.10226 l -1.54816,-2.58883 c -1.95418,-3.2678 -3.65542,-4.96904 -6.92324,-6.92323 l -2.5888,-1.54816 -20.94141,0.004 -20.94137,0.004 -2.21267,1.26913 c -2.85731,1.63888 -5.82473,4.53893 -7.41785,7.24941 l -1.2631,2.14936 -0.13194,20.99379 -0.1319,20.9938 1.14902,2.26747 c 2.27458,4.48868 6.87491,8.23118 11.19476,9.10729 1.02513,0.2079 10.29555,0.34539 20.60092,0.30554 18.46402,-0.0714 18.77323,-0.0871 21.22146,-1.07574 z"
     id="path3315" />
  <path
     style="fill:#565f89;fill-opacity:1;fill-rule:nonzero;stroke-width:0.435745"
     d="m 75.078737,382.87057 c -4.507345,-1.57489 -7.237816,-4.11023 -9.459792,-8.78376 L 64.27234,371.25447 V 352.0817 332.90894 l 1.05123,-2.61447 c 1.437935,-3.57623 5.394672,-7.53297 8.970898,-8.9709 l 2.614468,-1.05123 h 19.195365 19.195369 l 3.33088,1.64621 c 3.76447,1.8605 5.91457,4.02223 7.68077,7.7223 l 1.144,2.3966 v 20.04425 20.04426 l -1.18415,2.41112 c -1.51168,3.07799 -4.6561,6.22241 -7.73409,7.73409 l -2.41112,1.18415 -19.390641,0.10349 c -17.778965,0.0949 -19.578974,0.0377 -21.656582,-0.68824 z"
     id="path4043" />
  <path
     style="fill:#565f89;fill-opacity:1;fill-rule:nonzero;stroke-width:0.435745"
     d="m 76.037447,287.20926 c -6.288101,-2.03312 -10.372046,-6.53243 -11.508251,-12.67873 -0.63495,-3.43476 -0.63495,-33.6263 0,-37.06107 0.974239,-5.27014 4.147462,-9.34914 9.111655,-11.71252 l 2.83234,-1.34843 h 19.608511 19.608508 l 2.47292,1.15926 c 3.30469,1.54918 6.02022,4.13648 7.81482,7.44579 l 1.47737,2.72431 V 256 276.26213 l -1.47737,2.72431 c -1.7946,3.30931 -4.51013,5.89661 -7.81482,7.44579 l -2.47292,1.15926 -18.954891,0.0907 c -14.519302,0.0695 -19.362764,-0.0412 -20.697872,-0.47289 z"
     id="path4771" />
  <path
     style="fill:#565f89;fill-opacity:1;fill-rule:nonzero;stroke-width:0.435745"
     d="m 77.146549,191.48251 c -5.053618,-1.02441 -9.922807,-5.08269 -11.86302,-9.88737 -1.004642,-2.48787 -1.011189,-2.62855 -1.011189,-21.73048 v -19.22641 l 1.742979,-3.41341 c 2.03881,-3.99277 4.807137,-6.52704 8.735292,-7.99675 2.4384,-0.91232 2.967175,-0.93183 21.936987,-0.80913 l 19.438362,0.12572 2.41112,1.18416 c 3.07799,1.51167 6.22241,4.65609 7.73409,7.73408 l 1.18415,2.41112 v 20.04426 20.04425 l -1.144,2.3966 c -1.76576,3.69913 -3.91643,5.86178 -7.67955,7.7223 l -3.32966,1.64621 -18.107227,0.0742 c -9.958973,0.0408 -18.980723,-0.1029 -20.048334,-0.31931 z"
     id="path4773" />
  <path
     style="fill:#565f89;fill-opacity:1;fill-rule:nonzero;stroke-width:0.435745"
     d="m 173.16802,191.50942 c -4.82805,-0.99233 -8.99193,-4.20727 -11.16392,-8.61967 l -1.43219,-2.90948 v -20.05311 -20.05312 l 1.18416,-2.41112 c 1.51167,-3.07799 4.6561,-6.22241 7.73409,-7.73408 l 2.41112,-1.18416 h 20.04425 20.04426 l 2.39659,1.144 c 5.1516,2.45908 8.26876,6.70726 9.16633,12.49223 0.31437,2.02615 0.4298,9.02877 0.3299,20.01341 -0.15096,16.60068 -0.17184,16.94255 -1.19191,19.51121 -1.42091,3.57803 -5.37059,7.53075 -8.95793,8.96484 -2.59916,1.03905 -2.72034,1.04564 -20.69788,1.12539 -9.94587,0.0441 -18.88596,-0.0847 -19.86687,-0.28634 z"
     id="path4775" />
  <path
     style="fill:#565f89;fill-opacity:1;fill-rule:nonzero;stroke-width:0.435745"
     d="m 172.08836,287.2244 c -4.3369,-1.19301 -8.12941,-4.35039 -10.28876,-8.56568 l -1.22769,-2.39659 V 256 235.73787 l 1.27489,-2.51754 c 1.57279,-3.10583 4.70728,-6.10136 7.9986,-7.644 l 2.49162,-1.16782 h 19.60851 19.60851 l 2.83234,1.3545 c 4.99335,2.38794 8.26683,6.74069 9.15686,12.17587 0.55194,3.37059 0.55194,32.75165 0,36.12224 -0.89003,5.43517 -4.16351,9.78793 -9.15686,12.17587 l -2.83234,1.3545 -18.73702,0.0904 c -13.9428,0.0673 -19.24662,-0.0498 -20.72866,-0.45748 z"
     id="path4777" />
  <path
     style="fill:#565f89;fill-opacity:1;fill-rule:nonzero;stroke-width:0.435745"
     d="m 268.6366,287.40226 c -4.59221,-1.11674 -8.99839,-4.74273 -11.0295,-9.07654 l -1.17136,-2.49934 V 256 236.17362 l 1.17136,-2.49934 c 1.49658,-3.19328 4.90022,-6.59692 8.09401,-8.09401 l 2.49974,-1.17176 18.69567,-0.13085 c 17.82163,-0.12473 18.83001,-0.0891 21.56936,0.76196 5.3794,1.67129 9.31505,5.76038 10.69946,11.11661 0.98666,3.81736 0.98666,35.87018 0,39.68754 -1.37238,5.30965 -5.30054,9.42209 -10.59507,11.0921 -2.59524,0.81859 -3.89619,0.87069 -20.69787,0.82889 -9.86071,-0.0245 -18.51683,-0.18766 -19.2358,-0.3625 z"
     id="path4779" />
  <path
     style="fill:#565f89;fill-opacity:1;fill-rule:nonzero;stroke-width:0.435745"
     d="m 268.85447,191.34108 c -4.23501,-0.93907 -7.38988,-3.06083 -9.79184,-6.58534 -2.80835,-4.12082 -2.895,-4.93182 -2.75359,-25.77262 l 0.1267,-18.67333 1.15926,-2.47292 c 1.54918,-3.30469 4.13648,-6.02022 7.44579,-7.81482 l 2.72432,-1.47737 h 20.05311 20.05312 l 2.87689,1.41614 c 3.41066,1.67889 6.08806,4.41351 7.71123,7.87605 l 1.15926,2.47292 v 19.60851 19.60851 l -1.3545,2.83234 c -2.32908,4.87027 -6.58861,8.14728 -11.88625,9.14454 -3.42601,0.64494 -34.48871,0.51032 -37.5235,-0.16261 z"
     id="path4781" />
  <path
     style="fill:#565f89;fill-opacity:1;fill-rule:nonzero;stroke-width:0.435745"
     d="m 365.17378,191.46954 c -5.02185,-0.98441 -9.9218,-5.06353 -11.8614,-9.8744 -0.99017,-2.45597 -1.01212,-2.84964 -1.1425,-20.48955 -0.15028,-20.3329 -0.0113,-21.58542 2.86156,-25.78859 1.9825,-2.9005 4.49635,-4.87291 7.77314,-6.09891 2.4042,-0.89953 3.00425,-0.92141 21.91025,-0.79913 18.9564,0.1226 19.48969,0.14943 21.50848,1.08179 2.88913,1.33432 6.62327,5.00831 8.05779,7.92799 l 1.20145,2.4453 v 20.04426 20.04425 l -1.144,2.3966 c -2.28258,4.78185 -6.4067,8.01192 -11.62298,9.10327 -2.76381,0.57824 -34.59746,0.58428 -37.54179,0.007 z"
     id="path4783" />
  <path
     style="fill:#565f89;fill-opacity:1;fill-rule:nonzero;stroke-width:0.435745"
     d="m 363.21725,286.90039 c -4.63838,-1.61471 -7.53631,-4.29555 -9.75093,-9.02048 l -1.16675,-2.48927 V 256 c 0,-19.30275 0.005,-19.40051 1.00078,-21.56936 2.29977,-5.00664 5.21817,-7.72033 10.05506,-9.34976 2.68658,-0.90505 3.32881,-0.92894 21.57584,-0.80259 l 18.80683,0.13022 2.87544,1.41614 c 3.40913,1.67899 6.08722,4.41483 7.70977,7.87605 l 1.15926,2.47292 V 256 275.82638 l -1.15926,2.47292 c -1.62256,3.46124 -4.30064,6.19706 -7.70979,7.87605 l -2.87545,1.41614 -18.9652,0.10534 c -18.19957,0.10109 -19.06976,0.0689 -21.5556,-0.79644 z"
     id="path4785" />
  <path
     style="fill:#565f89;fill-opacity:1;fill-rule:nonzero;stroke-width:0.435745"
     d="m 461.07528,191.48894 c -4.572,-0.92967 -8.64191,-4.01889 -10.98278,-8.33633 l -1.49335,-2.75431 v -20.26213 -20.26213 l 1.22809,-2.50092 c 1.56468,-3.18636 4.41399,-6.03567 7.60034,-7.60035 l 2.50093,-1.22809 h 20.04426 20.04425 l 2.48222,1.16352 c 3.02498,1.41793 5.9823,4.29072 7.62218,7.40431 l 1.22496,2.32579 v 20.48 20.48 l -1.06534,2.17872 c -1.57702,3.22515 -5.3779,6.83387 -8.52425,8.09329 -2.59616,1.03919 -2.7158,1.04569 -20.69466,1.12545 -9.94587,0.0441 -18.93996,-0.0939 -19.98685,-0.30682 z"
     id="path4787" />
  <path
     style="fill:#565f89;fill-opacity:1;fill-rule:nonzero;stroke-width:0.435745"
     d="m 460.1156,287.2244 c -4.34139,-1.19424 -8.70354,-4.87577 -10.57485,-8.92487 -0.92226,-1.99555 -0.9416,-2.45359 -0.9416,-22.29953 v -20.26213 l 1.2036,-2.45086 c 1.48508,-3.02405 4.77263,-6.16525 8.06989,-7.71068 l 2.49162,-1.16782 h 19.60851 19.60851 l 2.73736,1.26407 c 3.51293,1.62221 7.06192,5.35091 8.33718,8.75934 0.87011,2.32558 0.90844,3.23545 0.90844,21.56808 0,18.33263 -0.0383,19.2425 -0.90844,21.56808 -1.27526,3.40843 -4.82425,7.13712 -8.33718,8.75934 l -2.73736,1.26407 -18.73702,0.0904 c -13.94281,0.0673 -19.24662,-0.0498 -20.72866,-0.45748 z"
     id="path4789" />
  <path
     style="fill:#565f89;fill-opacity:1;fill-rule:nonzero;stroke-width:0.435745"
     d="m 459.31659,383.02522 c -4.5621,-1.44299 -9.18847,-6.19432 -10.4476,-10.7298 -0.39046,-1.40645 -0.49639,-7.04275 -0.40038,-21.30308 l 0.13054,-19.39064 1.49335,-2.75431 c 2.46905,-4.55386 6.44224,-7.44448 11.52369,-8.38383 1.58866,-0.29368 8.8964,-0.41047 20.01578,-0.31987 17.29957,0.14095 17.54547,0.15545 20.12482,1.18696 3.14624,1.25822 6.94671,4.86612 8.52425,8.09233 l 1.06534,2.17872 v 20.48 20.48 l -1.22496,2.32579 c -1.63988,3.11359 -4.5972,5.98638 -7.62218,7.40431 l -2.48222,1.16352 -19.39064,0.0885 c -15.55664,0.071 -19.7701,-0.0315 -21.30979,-0.51856 z"
     id="path4791" />
</svg>
